# xmcd CD database file
#
# Track frame offsets:
#	150
#	19339
#	32460
#	46408
#	58712
#	80831
#	94260
#	106929
#	123122
#	137602
#	150801
#	162726
#	176828
#
# Disc length: 2613 seconds
#
# Revision: 0
# Processed by: cddbd v1.5.2PL0 Copyright (c) Steve Scherf et al.
# Submitted via: CDex 1.70beta2
#
DISCID=a40a330d
DTITLE=Various Artist - Listen and Look
DYEAR=2003
DGENRE=Jazz
TTITLE0=Scott Joplin - The Entertainer
TTITLE1=Jack Strachey/Harry Link - These Foolish Things
TTITLE2=Kay Swift/Paul James - Fine And Dandy
TTITLE3=Ralph Rainger/Leo Robin - Easy Living
TTITLE4=Thomas Waller - The Jitterbug Waltz
TTITLE5=Fabian André/Wilbur Schwandt - Dream A Litte Dream Of Me
TTITLE6=Arthur Johnston/M.Coslow - Cocktails For Two 
TTITLE7=Duke Ellington - Prelude To A Kiss
TTITLE8=Willie Smith - Rippling Waters
TTITLE9=Jerome Kern/Otto Harbach - Smoke Gets In Your Eyes
TTITLE10=Bernice Petkere - Lullaby Of The Leaves
TTITLE11=Irving Berlin - I've Got My Love To Keep Me Warm
TTITLE12=Bix Beiderbecke - Candlelights
EXTD=YEAR: 2003
EXTT0=
EXTT1=
EXTT2=
EXTT3=
EXTT4=
EXTT5=
EXTT6=
EXTT7=
EXTT8=
EXTT9=
EXTT10=
EXTT11=
EXTT12=
PLAYORDER=
